<svg width="182" height="36" viewBox="0 0 182 36" fill="none" xmlns="http://www.w3.org/2000/svg">
<path d="M4.27099 10.2133V25.8171H0V10.2133H4.27099Z" fill="white"/>
<path d="M19.907 10.2133V25.8171H16.3427L10.6583 17.619H10.5661V25.8171H6.2951V10.2133H9.92084L15.5131 18.381H15.636V10.2133H19.907Z" fill="white"/>
<path d="M21.4971 13.6267V10.2133H35.1704V13.6267H30.4385V25.8171H26.229V13.6267H21.4971Z" fill="white"/>
<path d="M36.7778 25.8171V10.2133H48.1159V13.6267H41.0487V16.3086H47.5321V19.7219H41.0487V22.4038H48.0851V25.8171H36.7778Z" fill="white"/>
<path d="M50.2341 25.8171V10.2133H57.0246C58.1922 10.2133 59.2139 10.4241 60.0896 10.8457C60.9653 11.2673 61.6464 11.8743 62.1329 12.6667C62.6194 13.459 62.8627 14.4089 62.8627 15.5162C62.8627 16.6337 62.6117 17.5759 62.1099 18.3429C61.6131 19.1098 60.9141 19.6889 60.0128 20.08C59.1166 20.4711 58.0693 20.6667 56.871 20.6667H52.8151V17.3752H56.0107C56.5125 17.3752 56.9401 17.3143 57.2935 17.1924C57.652 17.0654 57.9259 16.8648 58.1154 16.5905C58.31 16.3162 58.4073 15.9581 58.4073 15.5162C58.4073 15.0692 58.31 14.706 58.1154 14.4267C57.9259 14.1422 57.652 13.934 57.2935 13.8019C56.9401 13.6648 56.5125 13.5962 56.0107 13.5962H54.5051V25.8171H50.2341ZM59.452 18.6552L63.385 25.8171H58.7453L54.9045 18.6552H59.452Z" fill="white"/>
<path d="M77.5239 16.0711V11.4435H72.8583L66.1426 17.9642L72.8583 24.6252H77.5239V20.0677H72.8583V16.0711H77.5239Z" fill="#E31E24"/>
<path d="M81.624 16.0711V11.4435H86.2896L93.0052 17.9642L86.2896 24.6252H81.624V20.0677H86.2896V16.0711H81.624Z" fill="#E31E24"/>
<path d="M100.724 10.2133L103.951 21.2152H104.074L107.3 10.2133H112.124L106.931 25.8171H101.093L95.9004 10.2133H100.724Z" fill="white"/>
<path d="M115.149 25.8171H110.54L115.732 10.2133H121.57L126.763 25.8171H122.154L118.713 14.5105H118.59L115.149 25.8171ZM114.288 19.661H122.953V22.8305H114.288V19.661Z" fill="white"/>
<path d="M137.589 10.2133H141.86V20.2095C141.86 21.3981 141.573 22.4267 140.999 23.2952C140.431 24.1587 139.637 24.8267 138.618 25.299C137.599 25.7663 136.416 26 135.069 26C133.712 26 132.524 25.7663 131.505 25.299C130.486 24.8267 129.692 24.1587 129.123 23.2952C128.56 22.4267 128.278 21.3981 128.278 20.2095V10.2133H132.549V19.8438C132.549 20.3264 132.657 20.7581 132.872 21.139C133.087 21.5149 133.384 21.8095 133.763 22.0229C134.147 22.2362 134.583 22.3429 135.069 22.3429C135.561 22.3429 135.996 22.2362 136.375 22.0229C136.754 21.8095 137.051 21.5149 137.266 21.139C137.481 20.7581 137.589 20.3264 137.589 19.8438V10.2133Z" fill="white"/>
<path d="M143.889 25.8171V10.2133H148.16V22.4038H154.521V25.8171H143.889Z" fill="white"/>
<path d="M153.937 13.6267V10.2133H167.61V13.6267H162.878V25.8171H158.669V13.6267H153.937Z" fill="white"/>
<path d="M177.698 15.0895C177.657 14.5816 177.465 14.1854 177.122 13.901C176.784 13.6165 176.27 13.4743 175.578 13.4743C175.138 13.4743 174.777 13.5276 174.495 13.6343C174.218 13.7359 174.014 13.8756 173.881 14.0533C173.747 14.2311 173.678 14.4343 173.673 14.6629C173.663 14.8508 173.696 15.021 173.773 15.1733C173.855 15.3206 173.983 15.4552 174.157 15.5771C174.331 15.694 174.554 15.8006 174.825 15.8971C175.097 15.9937 175.419 16.08 175.793 16.1562L177.084 16.4305C177.954 16.6133 178.699 16.8546 179.319 17.1543C179.939 17.454 180.446 17.807 180.84 18.2133C181.234 18.6146 181.524 19.0667 181.708 19.5695C181.898 20.0724 181.995 20.621 182 21.2152C181.995 22.2413 181.736 23.1098 181.224 23.821C180.712 24.5321 179.98 25.073 179.027 25.4438C178.08 25.8146 176.94 26 175.609 26C174.242 26 173.048 25.7994 172.029 25.3981C171.015 24.9968 170.227 24.3797 169.663 23.5467C169.105 22.7086 168.823 21.6368 168.818 20.3314H172.874C172.9 20.8089 173.02 21.2102 173.235 21.5352C173.45 21.8603 173.752 22.1067 174.142 22.2743C174.536 22.4419 175.005 22.5257 175.547 22.5257C176.003 22.5257 176.385 22.4698 176.692 22.3581C176.999 22.2464 177.232 22.0914 177.391 21.8933C177.55 21.6952 177.632 21.4692 177.637 21.2152C177.632 20.9765 177.552 20.7683 177.399 20.5905C177.25 20.4076 177.004 20.2451 176.661 20.1029C176.318 19.9556 175.855 19.8184 175.271 19.6914L173.704 19.3562C172.311 19.0565 171.212 18.5562 170.408 17.8552C169.61 17.1492 169.213 16.1867 169.218 14.9676C169.213 13.9771 169.479 13.1111 170.017 12.3695C170.559 11.6229 171.31 11.0413 172.267 10.6248C173.23 10.2083 174.334 10 175.578 10C176.848 10 177.947 10.2108 178.874 10.6324C179.8 11.054 180.515 11.6483 181.017 12.4152C181.524 13.1771 181.78 14.0686 181.785 15.0895H177.698Z" fill="white"/>
</svg>
