<svg width="42" height="28" viewBox="0 0 42 28" fill="none" xmlns="http://www.w3.org/2000/svg">
<path d="M2.41406 10.6729L3.05878 21.2621L8.05011 26.2119M8.05011 26.2119L7.50938 14.4788M8.05011 26.2119L39.246 18.0593L39.5787 7.86523" stroke="#3C3939" stroke-width="0.7"/>
<path d="M7.27953 14.4159L1.87225 10.2148L1.78906 9.00859M7.27953 14.4159L25.8307 10.6264L40.3679 7.65677V6.49212M7.27953 14.4159L7.23794 13.1056M40.3679 6.49212L32.5482 3.83008L19.0092 6.10946M40.3679 6.49212L25.8307 9.3941M7.23794 13.1056L1.78906 9.00859M7.23794 13.1056L25.8307 9.3941M1.78906 9.00859L19.0092 6.10946M25.8307 9.3941L19.0092 6.10946" stroke="#3C3939" stroke-width="0.7"/>
</svg>
