<?xml version="1.0" encoding="UTF-8"?>
<svg id="Layer_2" data-name="Layer 2" xmlns="http://www.w3.org/2000/svg" xmlns:xlink="http://www.w3.org/1999/xlink" viewBox="0 0 1044.63 187.79">
  <defs>
    <style>
      .cls-1 {
        fill: url(#linear-gradient);
      }

      .cls-1, .cls-2, .cls-3, .cls-4, .cls-5, .cls-6, .cls-7, .cls-8, .cls-9, .cls-10, .cls-11, .cls-12, .cls-13, .cls-14, .cls-15 {
        stroke-width: 0px;
      }

      .cls-2 {
        fill: url(#linear-gradient-11);
      }

      .cls-3 {
        fill: url(#linear-gradient-12);
      }

      .cls-4 {
        fill: url(#linear-gradient-13);
      }

      .cls-5 {
        fill: url(#linear-gradient-10);
      }

      .cls-6 {
        fill: url(#linear-gradient-14);
      }

      .cls-7 {
        fill: url(#linear-gradient-4);
      }

      .cls-8 {
        fill: url(#linear-gradient-2);
      }

      .cls-9 {
        fill: url(#linear-gradient-3);
      }

      .cls-10 {
        fill: url(#linear-gradient-8);
      }

      .cls-11 {
        fill: url(#linear-gradient-9);
      }

      .cls-12 {
        fill: url(#linear-gradient-7);
      }

      .cls-13 {
        fill: url(#linear-gradient-5);
      }

      .cls-14 {
        fill: url(#linear-gradient-6);
      }

      .cls-15 {
        fill: #fff;
      }
    </style>
    <linearGradient id="linear-gradient" x1="519.36" y1="186.72" x2="519.36" y2="147.56" gradientUnits="userSpaceOnUse">
      <stop offset="0" stop-color="#f84bff"/>
      <stop offset="1" stop-color="#7677ff"/>
    </linearGradient>
    <linearGradient id="linear-gradient-2" x1="555.3" x2="555.3" xlink:href="#linear-gradient"/>
    <linearGradient id="linear-gradient-3" x1="587.6" x2="587.6" xlink:href="#linear-gradient"/>
    <linearGradient id="linear-gradient-4" x1="633.79" x2="633.79" xlink:href="#linear-gradient"/>
    <linearGradient id="linear-gradient-5" x1="692.36" x2="692.36" xlink:href="#linear-gradient"/>
    <linearGradient id="linear-gradient-6" x1="733.73" y1="187.79" x2="733.73" y2="146.5" xlink:href="#linear-gradient"/>
    <linearGradient id="linear-gradient-7" x1="779.42" y1="187.79" x2="779.42" xlink:href="#linear-gradient"/>
    <linearGradient id="linear-gradient-8" x1="826.34" x2="826.34" xlink:href="#linear-gradient"/>
    <linearGradient id="linear-gradient-9" x1="885.83" y1="187.79" x2="885.83" y2="146.5" xlink:href="#linear-gradient"/>
    <linearGradient id="linear-gradient-10" x1="927.88" x2="927.88" xlink:href="#linear-gradient"/>
    <linearGradient id="linear-gradient-11" x1="975.67" x2="975.67" xlink:href="#linear-gradient"/>
    <linearGradient id="linear-gradient-12" x1="1023.82" x2="1023.82" xlink:href="#linear-gradient"/>
    <linearGradient id="linear-gradient-13" x1="40.83" y1="187.79" x2="40.83" y2="0" xlink:href="#linear-gradient"/>
    <linearGradient id="linear-gradient-14" x1="131.03" y1="187.79" x2="131.03" y2=".02" xlink:href="#linear-gradient"/>
  </defs>
  <g id="Layer_1-2" data-name="Layer 1">
    <g>
      <path class="cls-15" d="M241.23,69.67h35.18c.15,1.02.22,2.5.22,4.47,0,11.18-3.34,20.52-10.02,27.99-7.26,8.13-16.59,12.2-27.99,12.2s-20.48-3.94-28.32-11.82c-7.84-7.88-11.76-17.34-11.76-28.37s3.92-20.48,11.76-28.32c7.84-7.84,17.28-11.76,28.32-11.76,6.39,0,12.45,1.45,18.19,4.36,5.74,2.91,10.49,6.94,14.27,12.09l-11.55,8.06c-2.47-3.27-5.54-5.84-9.2-7.73-3.67-1.89-7.57-2.83-11.71-2.83-7.19,0-13.33,2.56-18.41,7.68-5.08,5.12-7.62,11.27-7.62,18.46s2.54,13.34,7.62,18.46c5.08,5.12,11.22,7.68,18.41,7.68,5.95,0,10.87-1.61,14.76-4.85,3.88-3.23,6.55-7.39,8.01-12.47h-20.15v-13.29Z"/>
      <path class="cls-15" d="M328.58,36.12l30.39,76.14h-14.16l-6.86-17.1h-37.14l-6.86,17.1h-14.27l30.5-76.14h18.41ZM305.93,82.41h26.9l-13.51-33.66-13.4,33.66Z"/>
      <path class="cls-15" d="M453.95,36.12v76.14h-13.94v-50l-23.53,32.89h-8.17l-23.53-32.89v50h-14.05V36.12h11l30.61,42.92,30.72-42.92h10.89Z"/>
      <path class="cls-15" d="M536.73,49.19h-47.27v18.41h39.1v13.18h-39.1v18.3h47.27v13.18h-61.32V36.12h61.32v13.07Z"/>
      <path class="cls-15" d="M606.55,86.11l19.61,26.14h-16.55l-17.54-23.53h-22.98v23.53h-14.05V36.12h39.97c7.33,0,13.62,2.58,18.84,7.73s7.84,11.36,7.84,18.63c0,5.16-1.38,9.84-4.14,14.05-2.76,4.21-6.43,7.41-11,9.59ZM594.57,75.22c3.63,0,6.72-1.24,9.26-3.7,2.54-2.47,3.81-5.48,3.81-9.04s-1.27-6.59-3.81-9.1c-2.54-2.5-5.63-3.76-9.26-3.76h-25.49v25.6h25.49Z"/>
      <path class="cls-15" d="M755.99,36.12v76.14h-13.94v-50l-23.53,32.89h-8.17l-23.53-32.89v50h-14.05V36.12h11l30.61,42.92,30.72-42.92h10.89Z"/>
      <path class="cls-15" d="M791.28,112.26h-14.05V36.12h14.05v76.14Z"/>
      <path class="cls-15" d="M881.69,36.12v76.14h-10.24l-44.99-52.28v52.28h-14.05V36.12h10.24l44.99,52.17v-52.17h14.05Z"/>
      <path class="cls-15" d="M934.51,36.12c10.38,0,19.22,3.7,26.52,11.11,7.3,7.41,10.95,16.37,10.95,26.9s-3.67,19.52-11,26.96c-7.33,7.44-16.16,11.16-26.47,11.16h-32.79V36.12h32.79ZM934.08,98.64c6.61,0,12.25-2.4,16.94-7.19,4.68-4.79,7.03-10.57,7.03-17.32s-2.34-12.53-7.03-17.32c-4.68-4.79-10.33-7.19-16.94-7.19h-18.3v49.02h18.3Z"/>
      <path class="cls-15" d="M1017.19,67.92c3.27,1.02,5.9,1.89,7.9,2.61,2,.73,4.39,1.8,7.19,3.21,2.79,1.42,4.97,2.87,6.53,4.36s2.92,3.4,4.09,5.72c1.16,2.32,1.74,4.87,1.74,7.62,0,4.07-.89,7.61-2.67,10.62-1.78,3.01-4.23,5.34-7.35,6.97-3.12,1.63-6.53,2.85-10.24,3.65-3.7.8-7.73,1.2-12.09,1.2-11.04,0-21.42-2.79-31.15-8.39l7.08-11.22c8.5,4.65,16.7,6.97,24.62,6.97,11.47,0,17.21-3.01,17.21-9.04,0-1.6-.45-3.03-1.36-4.3-.91-1.27-2.34-2.4-4.3-3.38s-3.8-1.78-5.5-2.4c-1.71-.62-4.09-1.4-7.14-2.34-.15-.07-.27-.11-.38-.11s-.22-.04-.33-.11c-.11-.07-.24-.11-.38-.11-3.56-1.09-6.28-1.96-8.17-2.61-1.89-.65-4.3-1.69-7.24-3.11-2.94-1.42-5.17-2.87-6.7-4.36-1.53-1.49-2.89-3.43-4.09-5.83s-1.8-5.08-1.8-8.06c0-6.17,2.54-11.15,7.63-14.92,5.52-3.99,13.32-5.99,23.42-5.99s19.68,2.8,29.41,8.39l-6.86,10.89c-8.13-4.5-15.87-6.75-23.2-6.75-5.16,0-9.08.71-11.76,2.12-2.69,1.42-4.03,3.32-4.03,5.72,0,1.31.36,2.52,1.09,3.65.73,1.13,1.53,2.05,2.4,2.78.87.73,2.27,1.51,4.19,2.34,1.92.84,3.5,1.45,4.74,1.85,1.23.4,3.16,1,5.77,1.8.8.22,1.38.4,1.74.55Z"/>
    </g>
    <g>
      <path class="cls-1" d="M540.77,147.56v39.16h-7.17v-25.71l-12.1,16.92h-4.2l-12.1-16.92v25.71h-7.23v-39.16h5.66l15.74,22.07,15.8-22.07h5.6Z"/>
      <path class="cls-8" d="M551.69,186.72v-39.16h7.23v39.16h-7.23Z"/>
      <path class="cls-9" d="M605.41,186.72h-5.27l-23.14-26.89v26.89h-7.23v-39.16h5.27l23.14,26.89v-26.89h7.23v39.16Z"/>
      <path class="cls-7" d="M632.58,147.56c5.34,0,9.89,1.9,13.64,5.71,3.75,3.81,5.63,8.42,5.63,13.84s-1.89,10.04-5.66,13.87c-3.77,3.83-8.31,5.74-13.61,5.74h-16.86v-39.16h16.86ZM632.36,179.72c3.4,0,6.3-1.23,8.71-3.7s3.61-5.43,3.61-8.91-1.2-6.44-3.61-8.91-5.31-3.7-8.71-3.7h-9.41v25.21h9.41Z"/>
      <path class="cls-13" d="M703.68,147.56h8.23l-15.97,23.59v15.57h-7.23v-15.57l-15.91-23.59h8.24l11.32,16.75,11.32-16.75Z"/>
      <path class="cls-14" d="M719.14,152.55c4.03-4.03,8.89-6.05,14.57-6.05s10.54,2.02,14.59,6.05c4.05,4.03,6.08,8.89,6.08,14.57s-2.03,10.54-6.08,14.59c-4.05,4.05-8.92,6.08-14.59,6.08s-10.53-2.03-14.57-6.08c-4.03-4.05-6.05-8.92-6.05-14.59s2.02-10.53,6.05-14.57ZM724.24,176.61c2.61,2.63,5.77,3.95,9.47,3.95s6.86-1.32,9.5-3.95c2.63-2.63,3.95-5.8,3.95-9.5s-1.32-6.85-3.95-9.47c-2.63-2.61-5.8-3.92-9.5-3.92s-6.85,1.31-9.47,3.92c-2.62,2.61-3.92,5.77-3.92,9.47s1.31,6.86,3.92,9.5Z"/>
      <path class="cls-12" d="M790.63,147.56h7.17v21.9c0,5.04-1.79,9.36-5.38,12.94-3.59,3.59-7.92,5.38-13,5.38s-9.41-1.79-13-5.38c-3.59-3.59-5.38-7.9-5.38-12.94v-21.9h7.23v21.9c0,3.06,1.09,5.68,3.28,7.84,2.18,2.17,4.81,3.25,7.87,3.25s5.74-1.08,7.93-3.25c2.19-2.17,3.28-4.78,3.28-7.84v-21.9Z"/>
      <path class="cls-10" d="M834.55,173.28l10.09,13.45h-8.52l-9.02-12.04h-11.82v12.04h-7.23v-39.16h20.56c3.77,0,7,1.33,9.69,3.98s4.03,5.85,4.03,9.58c0,2.65-.71,5.06-2.13,7.23-1.42,2.17-3.31,3.81-5.66,4.93ZM828.38,167.68c1.87,0,3.45-.63,4.76-1.91,1.31-1.27,1.96-2.82,1.96-4.65s-.65-3.39-1.96-4.68c-1.31-1.29-2.89-1.93-4.76-1.93h-13.11v13.17h13.11Z"/>
      <path class="cls-11" d="M887.71,164.82h18.1c.07.52.11,1.29.11,2.3,0,5.75-1.72,10.55-5.16,14.4-3.73,4.18-8.53,6.27-14.4,6.27s-10.53-2.03-14.57-6.08c-4.03-4.05-6.05-8.92-6.05-14.59s2.02-10.53,6.05-14.57c4.03-4.03,8.89-6.05,14.57-6.05,3.29,0,6.4.75,9.35,2.24,2.95,1.49,5.4,3.57,7.34,6.22l-5.94,4.15c-1.27-1.68-2.85-3.01-4.73-3.98-1.89-.97-3.89-1.46-6.02-1.46-3.7,0-6.85,1.32-9.47,3.95-2.62,2.63-3.92,5.8-3.92,9.5s1.31,6.86,3.92,9.5c2.61,2.63,5.77,3.95,9.47,3.95,3.06,0,5.59-.83,7.59-2.49,2-1.66,3.37-3.8,4.12-6.41h-10.36v-6.83Z"/>
      <path class="cls-5" d="M932.64,147.56l15.63,39.16h-7.28l-3.53-8.8h-19.1l-3.53,8.8h-7.34l15.69-39.16h9.47ZM920.99,171.37h13.84l-6.95-17.31-6.89,17.31Z"/>
      <path class="cls-2" d="M997.07,147.56v39.16h-7.17v-25.71l-12.1,16.92h-4.2l-12.1-16.92v25.71h-7.23v-39.16h5.66l15.74,22.07,15.8-22.07h5.6Z"/>
      <path class="cls-3" d="M1039.59,154.34h-24.31v9.41h20.11v6.78h-20.11v9.41h24.31v6.78h-31.54v-39.16h31.54v6.78Z"/>
    </g>
    <g>
      <path class="cls-4" d="M73.11.82c-7.79-1.66-16.07-.84-23.94,2.91-10.89,5.19-18.9,14.99-23.04,26.62C4.74,40.72-5.43,68.95,3.32,93.68c-4.23,11.59-4.59,25.03-.08,37.56,4.49,12.46,12.95,21.65,23,26.43,7.79,21.61,27.52,33.36,46.75,29.34,5.02-1.05,8.67-6.07,8.67-11.93V12.72c0-5.81-3.59-10.84-8.56-11.9ZM32.41,128.01c-3.6,0-6.52-2.92-6.52-6.52s2.92-6.52,6.52-6.52,6.52,2.92,6.52,6.52-2.92,6.52-6.52,6.52ZM38.01,109.55c0-3.6,2.92-6.52,6.52-6.52s6.52,2.92,6.52,6.52-2.92,6.52-6.52,6.52-6.52-2.92-6.52-6.52ZM44.44,140.05c-3.6,0-6.52-2.92-6.52-6.52s2.92-6.52,6.52-6.52,6.52,2.92,6.52,6.52-2.92,6.52-6.52,6.52ZM56.56,128.1c-3.6,0-6.52-2.92-6.52-6.52s2.92-6.52,6.52-6.52,6.52,2.92,6.52,6.52-2.92,6.52-6.52,6.52ZM44.53,91.15c-8.7,0-15.76-7.05-15.76-15.76s7.05-15.76,15.76-15.76,15.76,7.05,15.76,15.76-7.05,15.76-15.76,15.76Z"/>
      <path class="cls-6" d="M168.26,93.89h0c4.15-11.54,4.48-24.9,0-37.35-4.49-12.45-12.94-21.64-22.98-26.42C137.5,8.53,117.77-3.22,98.54.8c-5.02,1.05-8.67,6.07-8.67,11.93v162.34c0,5.81,3.59,10.85,8.56,11.91,7.78,1.65,16.05.82,23.9-2.92,10.82-5.16,18.81-14.87,22.96-26.41l1.18-.53c21.83-9.83,31.83-38.88,21.78-63.23ZM139.04,68.79c3.6,0,6.52,2.92,6.52,6.52s-2.92,6.52-6.52,6.52-6.52-2.92-6.52-6.52,2.92-6.52,6.52-6.52ZM133.44,87.26c0,3.6-2.92,6.52-6.52,6.52s-6.52-2.92-6.52-6.52,2.92-6.52,6.52-6.52,6.52,2.92,6.52,6.52ZM127.01,56.76c3.6,0,6.52,2.92,6.52,6.52s-2.92,6.52-6.52,6.52-6.52-2.92-6.52-6.52,2.92-6.52,6.52-6.52ZM114.89,68.71c3.6,0,6.52,2.92,6.52,6.52s-2.92,6.52-6.52,6.52-6.52-2.92-6.52-6.52,2.92-6.52,6.52-6.52ZM126.92,137.17c-8.7,0-15.76-7.05-15.76-15.76s7.05-15.76,15.76-15.76,15.76,7.05,15.76,15.76-7.05,15.76-15.76,15.76Z"/>
    </g>
  </g>
</svg>